# xmcd
#
# Track frame offsets:
#	150
#	15605
#	34657
#	51295
#	70750
#	86315
#	103502
#	120855
#	137302
#	155600
#	169710
#	188765
#
# Disc length: 2724
#
# Revision: 1
# Processed by: cddbd v1.5.1PL0 Copyright (c) Steve Scherf et al.
# Submitted via: dBpowerAMP V4.0
# Normalized: r0:TDELIM( - )
#
DISCID=880aa20c
DTITLE=Various Artist - Country Family - Country Countdown
DYEAR=2000
DGENRE=Country
TTITLE0=Dolly Parton - Tennessee Homesick Blues
TTITLE1=Alabama - Mountian Music
TTITLE2=Bobby Bare - Singin' In The Kitchen
TTITLE3=The Judds - Grandpa (Tell Me 'Bout The Good Old Days)
TTITLE4=Paul Overstreet - Seein' My Father In Me
TTITLE5=Carrie Newcomer - My Father's Only Son
TTITLE6=Doug Supernaw - I Don't Call Him Daddy
TTITLE7=Robert Ellis Orrall - Every Day When I Get Home
TTITLE8=Pirates Of The Mississippi - Feed Jake
TTITLE9=Dolly Parton - Coat Of Many Colors
TTITLE10=Diamond Rio - Mama Don't Forget To Pray For Me
TTITLE11=Holly Dunn - Daddy's Hands
EXTD=
EXTT0=
EXTT1=
EXTT2=
EXTT3=
EXTT4=
EXTT5=
EXTT6=
EXTT7=
EXTT8=
EXTT9=
EXTT10=
EXTT11=
PLAYORDER=
